# xmcd CD database file
#
# Track frame offsets:
#	150
#	20326
#	35901
#	53495
#	73807
#	95356
#	118212
#	131312
#
# Disc length: 2151 seconds
#
# Revision: 0
# Processed by: cddbd v1.5.2PL0 Copyright (c) Steve Scherf et al.
# Submitted via: CDex 1.51
#
DISCID=6a086508
DTITLE=Daly Wilson Big Band - Daly Wilson Big Band Featuring Marcia Hines
DYEAR=1975
DGENRE=Jazz
TTITLE0=Opener - Spanish
TTITLE1=Do You Know What It Means
TTITLE2=Theme From ''The Rockford File
TTITLE3=Chameleon
TTITLE4=Satin Doll
TTITLE5=The Way We Were
TTITLE6=Ain't No Mountain High Enough
TTITLE7=Jimmy Webb Medley (Up Up And Away-Wichita Lineman-MacArthur Park)
EXTD=YEAR: 1975
EXTT0=
EXTT1=
EXTT2=
EXTT3=
EXTT4=
EXTT5=
EXTT6=
EXTT7=
PLAYORDER=
